inDegrees=yes
name=ik_S53_A02_T01
DataType=double
version=3
OpenSimVersion=4.3-2021-08-27-4bc7ad9
endheader
time	pelvis_tilt	pelvis_list	pelvis_rotation	pelvis_tx	pelvis_ty	pelvis_tz	hip_flexion_r	hip_adduction_r	hip_rotation_r	knee_angle_r	knee_angle_r_beta	ankle_angle_r	subtalar_angle_r	mtp_angle_r	hip_flexion_l	hip_adduction_l	hip_rotation_l	knee_angle_l	knee_angle_l_beta	ankle_angle_l	subtalar_angle_l	mtp_angle_l	lumbar_extension	lumbar_bending	lumbar_rotation	arm_flex_r	arm_add_r	arm_rot_r	elbow_flex_r	pro_sup_r	wrist_flex_r	wrist_dev_r	arm_flex_l	arm_add_l	arm_rot_l	elbow_flex_l	pro_sup_l	wrist_flex_l	wrist_dev_l
13.6199999999998	3.639595938957373	-3.255349130694709	-90.33271096600991	0	0.9399999999999999	0	15.29397105628284	-13.22858855793994	-6.574474473446918	42.54906454763704	0.7426212699998581	0	0	0	0.9699462457135005	3.597014296687846	-5.741736142860107	10.50728243462056	0.1833866739210946	0	0	0	0	0	0	29.5470930135447	-29.5470930135447	4.214173884846412	73.98477111468428	85.78582635212544	0	0	29.5470930135447	-29.5470930135447	4.214173884846412	73.98477111468428	85.78582635197904	0	0
13.6399999999998	3.637348883874965	-3.671762155361568	-89.81608446646676	0	0.9399999999999999	0	13.39878865151728	-13.21802280923694	-6.450623183042893	44.5337249557149	0.7772601286547908	0	0	0	1.012096615995424	3.288860153896685	-5.097138178341399	10.45700772610224	0.1825092147269694	0	0	0	0	0	0	29.55333092440497	-29.55333092440497	4.214803521215336	73.99371502188185	85.78519671578945	0	0	29.55333092440497	-29.55333092440497	4.214803521215336	73.99371502188185	85.78519671564317	0	0
13.6599999999998	3.64118601102183	-3.888524568164731	-89.54518121404774	0	0.9399999999999999	0	9.960041017102705	-12.57253594619035	-5.566630179889559	44.33506829471136	0.773792915839261	0	0	0	1.252713319282533	2.992061926507782	-4.649834929508248	10.59820056268688	0.1849734946056017	0	0	0	0	0	0	29.61144056180783	-29.61144056180783	4.219823043144612	74.06453717176186	85.78017719411656	0	0	29.61144056180783	-29.61144056180783	4.219823043144612	74.06453717176186	85.78017719397126	0	0
13.6799999999998	3.705605711124425	-4.331088624999948	-89.10862989914644	0	0.9399999999999999	0	7.971151951229039	-12.00429102016001	-5.21893874867979	45.35955754673347	0.7916736264383407	0	0	0	1.533943105128023	2.446156826113662	-3.866578993312196	10.78211795390981	0.1881834586341203	0	0	0	0	0	0	29.61676934467581	-29.61676934467581	4.220359261050658	74.07215217095936	85.77964097623864	0	0	29.61676934467581	-29.61676934467581	4.220359261050658	74.07215217095936	85.77964097609338	0	0
13.6999999999998	3.784847395092578	-4.754206924812133	-88.73622478967081	0	0.9399999999999999	0	7.479373959467267	-12.12289173442735	-5.570420970639214	45.35697933992923	0.7916286282408093	0	0	0	1.071344821577156	2.505740501520397	-3.530921586984288	10.20005968517362	0.1780246254062159	0	0	0	0	0	0	29.62049103488797	-29.62049103488797	4.220733518266987	74.07746694868017	85.77926671904186	0	0	29.62049103488797	-29.62049103488797	4.220733518266987	74.07746694868017	85.77926671889668	0	0
13.7199999999998	3.916715009149413	-5.115884024608121	-88.39683228488943	0	0.9399999999999999	0	5.554521634502473	-11.57001256761281	-5.143348234823059	47.36215523637837	0.8266255497154757	0	0	0	1.033373206888212	2.288607173029495	-3.078122390053917	9.946526721540119	0.1735996404284723	0	0	0	0	0	0	29.62594862040523	-29.62594862040523	4.221282507731837	74.08526302180124	85.77871772960573	0	0	29.62594862040523	-29.62594862040523	4.221282507731837	74.08526302180124	85.77871772946065	0	0
13.7399999999998	4.133764773251073	-5.400957805084773	-87.9301973304834	0	0.9399999999999999	0	5.191176149454197	-11.80989062087422	-5.561810356767146	47.4006070252352	0.8272966600343092	0	0	0	1.05914198017136	2.166345304210858	-2.371429482921399	10.1565145827771	0.1772646199962785	0	0	0	0	0	0	29.62725101306561	-29.62725101306561	4.221411884312168	74.08709936105392	85.77858835303219	0	0	29.62725101306561	-29.62725101306561	4.221411884312168	74.08709936105392	85.77858835288711	0	0
13.7599999999998	4.193433658631039	-5.3850597909486	-87.77704062365235	0	0.9399999999999999	0	1.752369043157275	-11.42086239901377	-6.02199241346684	43.97802769169322	0.7675613817532884	0	0	0	1.460415395831439	1.759968389581786	-1.949801088134699	9.50342960649054	0.165866136864769	0	0	0	0	0	0	29.63046064774814	-29.63046064774814	4.221761600477086	74.09207141107441	85.77823863688559	0	0	29.63046064774814	-29.63046064774814	4.221761600477086	74.09207141107441	85.77823863674062	0	0
13.7799999999998	4.264316985765356	-5.22431994489205	-87.48679278387968	0	0.9399999999999999	0	1.859797922059966	-11.44565427529719	-6.181745753053634	44.06945220294119	0.7691570404915921	0	0	0	2.081788839153774	1.376723452501522	-1.290275852152844	9.390500347812901	0.1638951494790078	0	0	0	0	0	0	29.63297697689361	-29.63297697689361	4.222013307001069	74.09564494963773	85.77798693037478	0	0	29.63297697689361	-29.63297697689361	4.222013307001069	74.09564494963773	85.77798693022986	0	0
13.79999999999979	4.217182318115688	-4.967797204598445	-87.24457482546526	0	0.9399999999999999	0	-0.9076979250034327	-10.40294650388603	-7.796060983314193	39.34693803142002	0.6867336192264554	0	0	0	2.304822180853316	1.280354166820563	-1.022598200748946	8.8144885235714	0.1538418466155747	0	0	0	0	0	0	29.6391721875842	-29.6391721875842	4.222635444208056	74.10447883745137	85.77736479320031	0	0	29.6391721875842	-29.6391721875842	4.222635444208056	74.10447883745137	85.77736479305547	0	0
13.81999999999979	4.030676284639597	-4.555916026813867	-87.04914906842555	0	0.9399999999999999	0	-1.840844174632227	-9.54178881130043	-8.734599891046921	37.91231585104559	0.6616947386567816	0	0	0	2.720422071624611	0.9564296785920336	-0.7312164656640476	7.745316997303763	0.1351812832136314	0	0	0	0	0	0	29.64316100221288	-29.64316100221288	4.223036512850507	74.11017399063564	85.77696372457881	0	0	29.64316100221288	-29.64316100221288	4.223036512850507	74.11017399063564	85.77696372443401	0	0
13.83999999999979	3.658135168532195	-3.974349683258338	-86.87476053002018	0	0.9399999999999999	0	-1.24467534130447	-9.195856624509172	-8.926792870926507	38.00332586104021	0.6632831629834607	0	0	0	5.281727731809601	-0.5643371516406341	1.114533974664287	9.018254242107792	0.1573982293067268	0	0	0	0	0	0	29.74366632169328	-29.74366632169328	4.23163543841871	74.2314454422132	85.76836479944913	0	0	29.74366632169328	-29.74366632169328	4.23163543841871	74.2314454422132	85.76836479930596	0	0
